# xmcd
#
# Track frame offsets:
#	180
#	19279
#	39965
#	52640
#	70508
#	84819
#	96958
#	112554
#	124104
#	135949
#	153879
#	171054
#	190173
#	209655
#	225912
#
# Disc length: 3233 seconds
#
# Revision: 1
# Processed by: cddbd v1.5.1PL2 Copyright (c) Steve Scherf et al.
# Submitted via: audiograbber 1.83.01
#
DISCID=a40c9f0f
DTITLE=Sound Choice - SC8163
DYEAR=1900
DGENRE=Karaoke Country
TTITLE0=Loveless, Patty - You Don'T Even Know Who I Am 
TTITLE1=Montgomery, John Michael - I Can Love You Like That
TTITLE2=Chesney, Kenny - Fall In Love
TTITLE3=Williams, Hank Jr - Hog Wild
TTITLE4=Dunn, Holly - I Am Who I Am
TTITLE5=Keith, Toby - You Ain'T Much Fun
TTITLE6=Yearwood, Trisha - You Can Sleep While I Drive
TTITLE7=Kershaw, Sammy - If You'Re Gonna Walk, I'M Gonna Crwawl
TTITLE8=Mellons, Ken - Workin' For The Weekend
TTITLE9=Wiggins, John and Audrey - Memory Making Night
TTITLE10=Strait, George - Adalida
TTITLE11=Stuart, Marty - Likes Of Me, The
TTITLE12=Taff, Russ - One And Only Love
TTITLE13=Hayes, Wade - I'M Still Dancin' With You
TTITLE14=Dennis, Wesley - I Don'T Know (But I'Ve Been Told)
EXTD=
EXTT0=
EXTT1=
EXTT2=
EXTT3=
EXTT4=
EXTT5=
EXTT6=
EXTT7=
EXTT8=
EXTT9=
EXTT10=
EXTT11=
EXTT12=
EXTT13=
EXTT14=
PLAYORDER=
